<svg width="320" height="320" viewBox="0 0 320 320" fill="none" xmlns="http://www.w3.org/2000/svg">
<path fill-rule="evenodd" clip-rule="evenodd" d="M0 4C0 1.79089 1.79089 0 4 0C6.20911 0 8 1.79089 8 4C8 6.20911 6.20911 8 4 8C1.79089 8 0 6.20911 0 4ZM0 30C0 27.7909 1.79089 26 4 26C6.20911 26 8 27.7909 8 30C8 32.2091 6.20911 34 4 34C1.79089 34 0 32.2091 0 30ZM0 134C0 131.791 1.79089 130 4 130C6.20911 130 8 131.791 8 134C8 136.209 6.20911 138 4 138C1.79089 138 0 136.209 0 134ZM4 234C1.79089 234 0 235.791 0 238C0 240.209 1.79089 242 4 242C6.20911 242 8 240.209 8 238C8 235.791 6.20911 234 4 234ZM0 186C0 183.791 1.79089 182 4 182C6.20911 182 8 183.791 8 186C8 188.209 6.20911 190 4 190C1.79089 190 0 188.209 0 186ZM4 78C1.79089 78 0 79.7909 0 82C0 84.2091 1.79089 86 4 86C6.20911 86 8 84.2091 8 82C8 79.7909 6.20911 78 4 78ZM0 290C0 287.791 1.79089 286 4 286C6.20911 286 8 287.791 8 290C8 292.209 6.20911 294 4 294C1.79089 294 0 292.209 0 290ZM4 156C1.79089 156 0 157.791 0 160C0 162.209 1.79089 164 4 164C6.20911 164 8 162.209 8 160C8 157.791 6.20911 156 4 156ZM0 56C0 53.7909 1.79089 52 4 52C6.20911 52 8 53.7909 8 56C8 58.2091 6.20911 60 4 60C1.79089 60 0 58.2091 0 56ZM4 260C1.79089 260 0 261.791 0 264C0 266.209 1.79089 268 4 268C6.20911 268 8 266.209 8 264C8 261.791 6.20911 260 4 260ZM4 208C1.79089 208 0 209.791 0 212C0 214.209 1.79089 216 4 216C6.20911 216 8 214.209 8 212C8 209.791 6.20911 208 4 208ZM0 108C0 105.791 1.79089 104 4 104C6.20911 104 8 105.791 8 108C8 110.209 6.20911 112 4 112C1.79089 112 0 110.209 0 108ZM4 312C1.79089 312 0 313.791 0 316C0 318.209 1.79089 320 4 320C6.20911 320 8 318.209 8 316C8 313.791 6.20911 312 4 312ZM156 134C156 131.791 157.791 130 160 130C162.209 130 164 131.791 164 134C164 136.209 162.209 138 160 138C157.791 138 156 136.209 156 134ZM160 26C157.791 26 156 27.7909 156 30C156 32.2091 157.791 34 160 34C162.209 34 164 32.2091 164 30C164 27.7909 162.209 26 160 26ZM156 238C156 235.791 157.791 234 160 234C162.209 234 164 235.791 164 238C164 240.209 162.209 242 160 242C157.791 242 156 240.209 156 238ZM160 182C157.791 182 156 183.791 156 186C156 188.209 157.791 190 160 190C162.209 190 164 188.209 164 186C164 183.791 162.209 182 160 182ZM156 82C156 79.7909 157.791 78 160 78C162.209 78 164 79.7909 164 82C164 84.2091 162.209 86 160 86C157.791 86 156 84.2091 156 82ZM160 286C157.791 286 156 287.791 156 290C156 292.209 157.791 294 160 294C162.209 294 164 292.209 164 290C164 287.791 162.209 286 160 286ZM156 160C156 157.791 157.791 156 160 156C162.209 156 164 157.791 164 160C164 162.209 162.209 164 160 164C157.791 164 156 162.209 156 160ZM160 52C157.791 52 156 53.7909 156 56C156 58.2091 157.791 60 160 60C162.209 60 164 58.2091 164 56C164 53.7909 162.209 52 160 52ZM156 264C156 261.791 157.791 260 160 260C162.209 260 164 261.791 164 264C164 266.209 162.209 268 160 268C157.791 268 156 266.209 156 264ZM160 0C157.791 0 156 1.79089 156 4C156 6.20911 157.791 8 160 8C162.209 8 164 6.20911 164 4C164 1.79089 162.209 0 160 0ZM156 212C156 209.791 157.791 208 160 208C162.209 208 164 209.791 164 212C164 214.209 162.209 216 160 216C157.791 216 156 214.209 156 212ZM160 104C157.791 104 156 105.791 156 108C156 110.209 157.791 112 160 112C162.209 112 164 110.209 164 108C164 105.791 162.209 104 160 104ZM156 316C156 313.791 157.791 312 160 312C162.209 312 164 313.791 164 316C164 318.209 162.209 320 160 320C157.791 320 156 318.209 156 316ZM316 130C313.791 130 312 131.791 312 134C312 136.209 313.791 138 316 138C318.209 138 320 136.209 320 134C320 131.791 318.209 130 316 130ZM312 30C312 27.7909 313.791 26 316 26C318.209 26 320 27.7909 320 30C320 32.2091 318.209 34 316 34C313.791 34 312 32.2091 312 30ZM316 234C313.791 234 312 235.791 312 238C312 240.209 313.791 242 316 242C318.209 242 320 240.209 320 238C320 235.791 318.209 234 316 234ZM312 186C312 183.791 313.791 182 316 182C318.209 182 320 183.791 320 186C320 188.209 318.209 190 316 190C313.791 190 312 188.209 312 186ZM316 78C313.791 78 312 79.7909 312 82C312 84.2091 313.791 86 316 86C318.209 86 320 84.2091 320 82C320 79.7909 318.209 78 316 78ZM312 290C312 287.791 313.791 286 316 286C318.209 286 320 287.791 320 290C320 292.209 318.209 294 316 294C313.791 294 312 292.209 312 290ZM316 156C313.791 156 312 157.791 312 160C312 162.209 313.791 164 316 164C318.209 164 320 162.209 320 160C320 157.791 318.209 156 316 156ZM312 56C312 53.7909 313.791 52 316 52C318.209 52 320 53.7909 320 56C320 58.2091 318.209 60 316 60C313.791 60 312 58.2091 312 56ZM316 260C313.791 260 312 261.791 312 264C312 266.209 313.791 268 316 268C318.209 268 320 266.209 320 264C320 261.791 318.209 260 316 260ZM312 4C312 1.79089 313.791 0 316 0C318.209 0 320 1.79089 320 4C320 6.20911 318.209 8 316 8C313.791 8 312 6.20911 312 4ZM316 208C313.791 208 312 209.791 312 212C312 214.209 313.791 216 316 216C318.209 216 320 214.209 320 212C320 209.791 318.209 208 316 208ZM312 108C312 105.791 313.791 104 316 104C318.209 104 320 105.791 320 108C320 110.209 318.209 112 316 112C313.791 112 312 110.209 312 108ZM316 312C313.791 312 312 313.791 312 316C312 318.209 313.791 320 316 320C318.209 320 320 318.209 320 316C320 313.791 318.209 312 316 312ZM26 134C26 131.791 27.7909 130 30 130C32.2091 130 34 131.791 34 134C34 136.209 32.2091 138 30 138C27.7909 138 26 136.209 26 134ZM30 26C27.7909 26 26 27.7909 26 30C26 32.2091 27.7909 34 30 34C32.2091 34 34 32.2091 34 30C34 27.7909 32.2091 26 30 26ZM26 238C26 235.791 27.7909 234 30 234C32.2091 234 34 235.791 34 238C34 240.209 32.2091 242 30 242C27.7909 242 26 240.209 26 238ZM30 182C27.7909 182 26 183.791 26 186C26 188.209 27.7909 190 30 190C32.2091 190 34 188.209 34 186C34 183.791 32.2091 182 30 182ZM26 82C26 79.7909 27.7909 78 30 78C32.2091 78 34 79.7909 34 82C34 84.2091 32.2091 86 30 86C27.7909 86 26 84.2091 26 82ZM30 286C27.7909 286 26 287.791 26 290C26 292.209 27.7909 294 30 294C32.2091 294 34 292.209 34 290C34 287.791 32.2091 286 30 286ZM26 160C26 157.791 27.7909 156 30 156C32.2091 156 34 157.791 34 160C34 162.209 32.2091 164 30 164C27.7909 164 26 162.209 26 160ZM30 52C27.7909 52 26 53.7909 26 56C26 58.2091 27.7909 60 30 60C32.2091 60 34 58.2091 34 56C34 53.7909 32.2091 52 30 52ZM26 264C26 261.791 27.7909 260 30 260C32.2091 260 34 261.791 34 264C34 266.209 32.2091 268 30 268C27.7909 268 26 266.209 26 264ZM30 0C27.7909 0 26 1.79089 26 4C26 6.20911 27.7909 8 30 8C32.2091 8 34 6.20911 34 4C34 1.79089 32.2091 0 30 0ZM26 212C26 209.791 27.7909 208 30 208C32.2091 208 34 209.791 34 212C34 214.209 32.2091 216 30 216C27.7909 216 26 214.209 26 212ZM30 104C27.7909 104 26 105.791 26 108C26 110.209 27.7909 112 30 112C32.2091 112 34 110.209 34 108C34 105.791 32.2091 104 30 104ZM26 316C26 313.791 27.7909 312 30 312C32.2091 312 34 313.791 34 316C34 318.209 32.2091 320 30 320C27.7909 320 26 318.209 26 316ZM186 130C183.791 130 182 131.791 182 134C182 136.209 183.791 138 186 138C188.209 138 190 136.209 190 134C190 131.791 188.209 130 186 130ZM182 30C182 27.7909 183.791 26 186 26C188.209 26 190 27.7909 190 30C190 32.2091 188.209 34 186 34C183.791 34 182 32.2091 182 30ZM186 234C183.791 234 182 235.791 182 238C182 240.209 183.791 242 186 242C188.209 242 190 240.209 190 238C190 235.791 188.209 234 186 234ZM182 186C182 183.791 183.791 182 186 182C188.209 182 190 183.791 190 186C190 188.209 188.209 190 186 190C183.791 190 182 188.209 182 186ZM186 78C183.791 78 182 79.7909 182 82C182 84.2091 183.791 86 186 86C188.209 86 190 84.2091 190 82C190 79.7909 188.209 78 186 78ZM182 290C182 287.791 183.791 286 186 286C188.209 286 190 287.791 190 290C190 292.209 188.209 294 186 294C183.791 294 182 292.209 182 290ZM186 156C183.791 156 182 157.791 182 160C182 162.209 183.791 164 186 164C188.209 164 190 162.209 190 160C190 157.791 188.209 156 186 156ZM182 56C182 53.7909 183.791 52 186 52C188.209 52 190 53.7909 190 56C190 58.2091 188.209 60 186 60C183.791 60 182 58.2091 182 56ZM186 260C183.791 260 182 261.791 182 264C182 266.209 183.791 268 186 268C188.209 268 190 266.209 190 264C190 261.791 188.209 260 186 260ZM182 4C182 1.79089 183.791 0 186 0C188.209 0 190 1.79089 190 4C190 6.20911 188.209 8 186 8C183.791 8 182 6.20911 182 4ZM186 208C183.791 208 182 209.791 182 212C182 214.209 183.791 216 186 216C188.209 216 190 214.209 190 212C190 209.791 188.209 208 186 208ZM182 108C182 105.791 183.791 104 186 104C188.209 104 190 105.791 190 108C190 110.209 188.209 112 186 112C183.791 112 182 110.209 182 108ZM186 312C183.791 312 182 313.791 182 316C182 318.209 183.791 320 186 320C188.209 320 190 318.209 190 316C190 313.791 188.209 312 186 312ZM52 134C52 131.791 53.7909 130 56 130C58.2091 130 60 131.791 60 134C60 136.209 58.2091 138 56 138C53.7909 138 52 136.209 52 134ZM56 26C53.7909 26 52 27.7909 52 30C52 32.2091 53.7909 34 56 34C58.2091 34 60 32.2091 60 30C60 27.7909 58.2091 26 56 26ZM52 238C52 235.791 53.7909 234 56 234C58.2091 234 60 235.791 60 238C60 240.209 58.2091 242 56 242C53.7909 242 52 240.209 52 238ZM56 182C53.7909 182 52 183.791 52 186C52 188.209 53.7909 190 56 190C58.2091 190 60 188.209 60 186C60 183.791 58.2091 182 56 182ZM52 82C52 79.7909 53.7909 78 56 78C58.2091 78 60 79.7909 60 82C60 84.2091 58.2091 86 56 86C53.7909 86 52 84.2091 52 82ZM56 286C53.7909 286 52 287.791 52 290C52 292.209 53.7909 294 56 294C58.2091 294 60 292.209 60 290C60 287.791 58.2091 286 56 286ZM52 160C52 157.791 53.7909 156 56 156C58.2091 156 60 157.791 60 160C60 162.209 58.2091 164 56 164C53.7909 164 52 162.209 52 160ZM56 52C53.7909 52 52 53.7909 52 56C52 58.2091 53.7909 60 56 60C58.2091 60 60 58.2091 60 56C60 53.7909 58.2091 52 56 52ZM52 264C52 261.791 53.7909 260 56 260C58.2091 260 60 261.791 60 264C60 266.209 58.2091 268 56 268C53.7909 268 52 266.209 52 264ZM56 0C53.7909 0 52 1.79089 52 4C52 6.20911 53.7909 8 56 8C58.2091 8 60 6.20911 60 4C60 1.79089 58.2091 0 56 0ZM52 212C52 209.791 53.7909 208 56 208C58.2091 208 60 209.791 60 212C60 214.209 58.2091 216 56 216C53.7909 216 52 214.209 52 212ZM56 104C53.7909 104 52 105.791 52 108C52 110.209 53.7909 112 56 112C58.2091 112 60 110.209 60 108C60 105.791 58.2091 104 56 104ZM52 316C52 313.791 53.7909 312 56 312C58.2091 312 60 313.791 60 316C60 318.209 58.2091 320 56 320C53.7909 320 52 318.209 52 316ZM212 130C209.791 130 208 131.791 208 134C208 136.209 209.791 138 212 138C214.209 138 216 136.209 216 134C216 131.791 214.209 130 212 130ZM208 30C208 27.7909 209.791 26 212 26C214.209 26 216 27.7909 216 30C216 32.2091 214.209 34 212 34C209.791 34 208 32.2091 208 30ZM212 234C209.791 234 208 235.791 208 238C208 240.209 209.791 242 212 242C214.209 242 216 240.209 216 238C216 235.791 214.209 234 212 234ZM208 186C208 183.791 209.791 182 212 182C214.209 182 216 183.791 216 186C216 188.209 214.209 190 212 190C209.791 190 208 188.209 208 186ZM212 78C209.791 78 208 79.7909 208 82C208 84.2091 209.791 86 212 86C214.209 86 216 84.2091 216 82C216 79.7909 214.209 78 212 78ZM208 290C208 287.791 209.791 286 212 286C214.209 286 216 287.791 216 290C216 292.209 214.209 294 212 294C209.791 294 208 292.209 208 290ZM212 156C209.791 156 208 157.791 208 160C208 162.209 209.791 164 212 164C214.209 164 216 162.209 216 160C216 157.791 214.209 156 212 156ZM208 56C208 53.7909 209.791 52 212 52C214.209 52 216 53.7909 216 56C216 58.2091 214.209 60 212 60C209.791 60 208 58.2091 208 56ZM212 260C209.791 260 208 261.791 208 264C208 266.209 209.791 268 212 268C214.209 268 216 266.209 216 264C216 261.791 214.209 260 212 260ZM208 4C208 1.79089 209.791 0 212 0C214.209 0 216 1.79089 216 4C216 6.20911 214.209 8 212 8C209.791 8 208 6.20911 208 4ZM212 208C209.791 208 208 209.791 208 212C208 214.209 209.791 216 212 216C214.209 216 216 214.209 216 212C216 209.791 214.209 208 212 208ZM208 108C208 105.791 209.791 104 212 104C214.209 104 216 105.791 216 108C216 110.209 214.209 112 212 112C209.791 112 208 110.209 208 108ZM212 312C209.791 312 208 313.791 208 316C208 318.209 209.791 320 212 320C214.209 320 216 318.209 216 316C216 313.791 214.209 312 212 312ZM78 134C78 131.791 79.7909 130 82 130C84.2091 130 86 131.791 86 134C86 136.209 84.2091 138 82 138C79.7909 138 78 136.209 78 134ZM82 26C79.7909 26 78 27.7909 78 30C78 32.2091 79.7909 34 82 34C84.2091 34 86 32.2091 86 30C86 27.7909 84.2091 26 82 26ZM78 238C78 235.791 79.7909 234 82 234C84.2091 234 86 235.791 86 238C86 240.209 84.2091 242 82 242C79.7909 242 78 240.209 78 238ZM82 182C79.7909 182 78 183.791 78 186C78 188.209 79.7909 190 82 190C84.2091 190 86 188.209 86 186C86 183.791 84.2091 182 82 182ZM78 82C78 79.7909 79.7909 78 82 78C84.2091 78 86 79.7909 86 82C86 84.2091 84.2091 86 82 86C79.7909 86 78 84.2091 78 82ZM82 286C79.7909 286 78 287.791 78 290C78 292.209 79.7909 294 82 294C84.2091 294 86 292.209 86 290C86 287.791 84.2091 286 82 286ZM78 160C78 157.791 79.7909 156 82 156C84.2091 156 86 157.791 86 160C86 162.209 84.2091 164 82 164C79.7909 164 78 162.209 78 160ZM82 52C79.7909 52 78 53.7909 78 56C78 58.2091 79.7909 60 82 60C84.2091 60 86 58.2091 86 56C86 53.7909 84.2091 52 82 52ZM78 264C78 261.791 79.7909 260 82 260C84.2091 260 86 261.791 86 264C86 266.209 84.2091 268 82 268C79.7909 268 78 266.209 78 264ZM82 0C79.7909 0 78 1.79089 78 4C78 6.20911 79.7909 8 82 8C84.2091 8 86 6.20911 86 4C86 1.79089 84.2091 0 82 0ZM78 212C78 209.791 79.7909 208 82 208C84.2091 208 86 209.791 86 212C86 214.209 84.2091 216 82 216C79.7909 216 78 214.209 78 212ZM82 104C79.7909 104 78 105.791 78 108C78 110.209 79.7909 112 82 112C84.2091 112 86 110.209 86 108C86 105.791 84.2091 104 82 104ZM78 316C78 313.791 79.7909 312 82 312C84.2091 312 86 313.791 86 316C86 318.209 84.2091 320 82 320C79.7909 320 78 318.209 78 316ZM238 130C235.791 130 234 131.791 234 134C234 136.209 235.791 138 238 138C240.209 138 242 136.209 242 134C242 131.791 240.209 130 238 130ZM234 30C234 27.7909 235.791 26 238 26C240.209 26 242 27.7909 242 30C242 32.2091 240.209 34 238 34C235.791 34 234 32.2091 234 30ZM238 234C235.791 234 234 235.791 234 238C234 240.209 235.791 242 238 242C240.209 242 242 240.209 242 238C242 235.791 240.209 234 238 234ZM234 186C234 183.791 235.791 182 238 182C240.209 182 242 183.791 242 186C242 188.209 240.209 190 238 190C235.791 190 234 188.209 234 186ZM238 78C235.791 78 234 79.7909 234 82C234 84.2091 235.791 86 238 86C240.209 86 242 84.2091 242 82C242 79.7909 240.209 78 238 78ZM234 290C234 287.791 235.791 286 238 286C240.209 286 242 287.791 242 290C242 292.209 240.209 294 238 294C235.791 294 234 292.209 234 290ZM238 156C235.791 156 234 157.791 234 160C234 162.209 235.791 164 238 164C240.209 164 242 162.209 242 160C242 157.791 240.209 156 238 156ZM234 56C234 53.7909 235.791 52 238 52C240.209 52 242 53.7909 242 56C242 58.2091 240.209 60 238 60C235.791 60 234 58.2091 234 56ZM238 260C235.791 260 234 261.791 234 264C234 266.209 235.791 268 238 268C240.209 268 242 266.209 242 264C242 261.791 240.209 260 238 260ZM234 4C234 1.79089 235.791 0 238 0C240.209 0 242 1.79089 242 4C242 6.20911 240.209 8 238 8C235.791 8 234 6.20911 234 4ZM238 208C235.791 208 234 209.791 234 212C234 214.209 235.791 216 238 216C240.209 216 242 214.209 242 212C242 209.791 240.209 208 238 208ZM234 108C234 105.791 235.791 104 238 104C240.209 104 242 105.791 242 108C242 110.209 240.209 112 238 112C235.791 112 234 110.209 234 108ZM238 312C235.791 312 234 313.791 234 316C234 318.209 235.791 320 238 320C240.209 320 242 318.209 242 316C242 313.791 240.209 312 238 312ZM104 134C104 131.791 105.791 130 108 130C110.209 130 112 131.791 112 134C112 136.209 110.209 138 108 138C105.791 138 104 136.209 104 134ZM108 26C105.791 26 104 27.7909 104 30C104 32.2091 105.791 34 108 34C110.209 34 112 32.2091 112 30C112 27.7909 110.209 26 108 26ZM104 238C104 235.791 105.791 234 108 234C110.209 234 112 235.791 112 238C112 240.209 110.209 242 108 242C105.791 242 104 240.209 104 238ZM108 182C105.791 182 104 183.791 104 186C104 188.209 105.791 190 108 190C110.209 190 112 188.209 112 186C112 183.791 110.209 182 108 182ZM104 82C104 79.7909 105.791 78 108 78C110.209 78 112 79.7909 112 82C112 84.2091 110.209 86 108 86C105.791 86 104 84.2091 104 82ZM108 286C105.791 286 104 287.791 104 290C104 292.209 105.791 294 108 294C110.209 294 112 292.209 112 290C112 287.791 110.209 286 108 286ZM104 160C104 157.791 105.791 156 108 156C110.209 156 112 157.791 112 160C112 162.209 110.209 164 108 164C105.791 164 104 162.209 104 160ZM108 52C105.791 52 104 53.7909 104 56C104 58.2091 105.791 60 108 60C110.209 60 112 58.2091 112 56C112 53.7909 110.209 52 108 52ZM104 264C104 261.791 105.791 260 108 260C110.209 260 112 261.791 112 264C112 266.209 110.209 268 108 268C105.791 268 104 266.209 104 264ZM108 0C105.791 0 104 1.79089 104 4C104 6.20911 105.791 8 108 8C110.209 8 112 6.20911 112 4C112 1.79089 110.209 0 108 0ZM104 212C104 209.791 105.791 208 108 208C110.209 208 112 209.791 112 212C112 214.209 110.209 216 108 216C105.791 216 104 214.209 104 212ZM108 104C105.791 104 104 105.791 104 108C104 110.209 105.791 112 108 112C110.209 112 112 110.209 112 108C112 105.791 110.209 104 108 104ZM104 316C104 313.791 105.791 312 108 312C110.209 312 112 313.791 112 316C112 318.209 110.209 320 108 320C105.791 320 104 318.209 104 316ZM264 130C261.791 130 260 131.791 260 134C260 136.209 261.791 138 264 138C266.209 138 268 136.209 268 134C268 131.791 266.209 130 264 130ZM260 30C260 27.7909 261.791 26 264 26C266.209 26 268 27.7909 268 30C268 32.2091 266.209 34 264 34C261.791 34 260 32.2091 260 30ZM264 234C261.791 234 260 235.791 260 238C260 240.209 261.791 242 264 242C266.209 242 268 240.209 268 238C268 235.791 266.209 234 264 234ZM260 186C260 183.791 261.791 182 264 182C266.209 182 268 183.791 268 186C268 188.209 266.209 190 264 190C261.791 190 260 188.209 260 186ZM264 78C261.791 78 260 79.7909 260 82C260 84.2091 261.791 86 264 86C266.209 86 268 84.2091 268 82C268 79.7909 266.209 78 264 78ZM260 290C260 287.791 261.791 286 264 286C266.209 286 268 287.791 268 290C268 292.209 266.209 294 264 294C261.791 294 260 292.209 260 290ZM264 156C261.791 156 260 157.791 260 160C260 162.209 261.791 164 264 164C266.209 164 268 162.209 268 160C268 157.791 266.209 156 264 156ZM260 56C260 53.7909 261.791 52 264 52C266.209 52 268 53.7909 268 56C268 58.2091 266.209 60 264 60C261.791 60 260 58.2091 260 56ZM264 260C261.791 260 260 261.791 260 264C260 266.209 261.791 268 264 268C266.209 268 268 266.209 268 264C268 261.791 266.209 260 264 260ZM260 4C260 1.79089 261.791 0 264 0C266.209 0 268 1.79089 268 4C268 6.20911 266.209 8 264 8C261.791 8 260 6.20911 260 4ZM264 208C261.791 208 260 209.791 260 212C260 214.209 261.791 216 264 216C266.209 216 268 214.209 268 212C268 209.791 266.209 208 264 208ZM260 108C260 105.791 261.791 104 264 104C266.209 104 268 105.791 268 108C268 110.209 266.209 112 264 112C261.791 112 260 110.209 260 108ZM264 312C261.791 312 260 313.791 260 316C260 318.209 261.791 320 264 320C266.209 320 268 318.209 268 316C268 313.791 266.209 312 264 312ZM130 134C130 131.791 131.791 130 134 130C136.209 130 138 131.791 138 134C138 136.209 136.209 138 134 138C131.791 138 130 136.209 130 134ZM134 26C131.791 26 130 27.7909 130 30C130 32.2091 131.791 34 134 34C136.209 34 138 32.2091 138 30C138 27.7909 136.209 26 134 26ZM130 238C130 235.791 131.791 234 134 234C136.209 234 138 235.791 138 238C138 240.209 136.209 242 134 242C131.791 242 130 240.209 130 238ZM134 182C131.791 182 130 183.791 130 186C130 188.209 131.791 190 134 190C136.209 190 138 188.209 138 186C138 183.791 136.209 182 134 182ZM130 82C130 79.7909 131.791 78 134 78C136.209 78 138 79.7909 138 82C138 84.2091 136.209 86 134 86C131.791 86 130 84.2091 130 82ZM134 286C131.791 286 130 287.791 130 290C130 292.209 131.791 294 134 294C136.209 294 138 292.209 138 290C138 287.791 136.209 286 134 286ZM130 160C130 157.791 131.791 156 134 156C136.209 156 138 157.791 138 160C138 162.209 136.209 164 134 164C131.791 164 130 162.209 130 160ZM134 52C131.791 52 130 53.7909 130 56C130 58.2091 131.791 60 134 60C136.209 60 138 58.2091 138 56C138 53.7909 136.209 52 134 52ZM130 264C130 261.791 131.791 260 134 260C136.209 260 138 261.791 138 264C138 266.209 136.209 268 134 268C131.791 268 130 266.209 130 264ZM134 0C131.791 0 130 1.79089 130 4C130 6.20911 131.791 8 134 8C136.209 8 138 6.20911 138 4C138 1.79089 136.209 0 134 0ZM130 212C130 209.791 131.791 208 134 208C136.209 208 138 209.791 138 212C138 214.209 136.209 216 134 216C131.791 216 130 214.209 130 212ZM134 104C131.791 104 130 105.791 130 108C130 110.209 131.791 112 134 112C136.209 112 138 110.209 138 108C138 105.791 136.209 104 134 104ZM130 316C130 313.791 131.791 312 134 312C136.209 312 138 313.791 138 316C138 318.209 136.209 320 134 320C131.791 320 130 318.209 130 316ZM290 130C287.791 130 286 131.791 286 134C286 136.209 287.791 138 290 138C292.209 138 294 136.209 294 134C294 131.791 292.209 130 290 130ZM286 30C286 27.7909 287.791 26 290 26C292.209 26 294 27.7909 294 30C294 32.2091 292.209 34 290 34C287.791 34 286 32.2091 286 30ZM290 234C287.791 234 286 235.791 286 238C286 240.209 287.791 242 290 242C292.209 242 294 240.209 294 238C294 235.791 292.209 234 290 234ZM286 186C286 183.791 287.791 182 290 182C292.209 182 294 183.791 294 186C294 188.209 292.209 190 290 190C287.791 190 286 188.209 286 186ZM290 78C287.791 78 286 79.7909 286 82C286 84.2091 287.791 86 290 86C292.209 86 294 84.2091 294 82C294 79.7909 292.209 78 290 78ZM286 290C286 287.791 287.791 286 290 286C292.209 286 294 287.791 294 290C294 292.209 292.209 294 290 294C287.791 294 286 292.209 286 290ZM290 156C287.791 156 286 157.791 286 160C286 162.209 287.791 164 290 164C292.209 164 294 162.209 294 160C294 157.791 292.209 156 290 156ZM286 56C286 53.7909 287.791 52 290 52C292.209 52 294 53.7909 294 56C294 58.2091 292.209 60 290 60C287.791 60 286 58.2091 286 56ZM290 260C287.791 260 286 261.791 286 264C286 266.209 287.791 268 290 268C292.209 268 294 266.209 294 264C294 261.791 292.209 260 290 260ZM286 4C286 1.79089 287.791 0 290 0C292.209 0 294 1.79089 294 4C294 6.20911 292.209 8 290 8C287.791 8 286 6.20911 286 4ZM290 208C287.791 208 286 209.791 286 212C286 214.209 287.791 216 290 216C292.209 216 294 214.209 294 212C294 209.791 292.209 208 290 208ZM286 108C286 105.791 287.791 104 290 104C292.209 104 294 105.791 294 108C294 110.209 292.209 112 290 112C287.791 112 286 110.209 286 108ZM290 312C287.791 312 286 313.791 286 316C286 318.209 287.791 320 290 320C292.209 320 294 318.209 294 316C294 313.791 292.209 312 290 312Z" fill="#C0DFDD"/>
</svg>
