<svg width="372" height="320" viewBox="0 0 372 320" fill="none" xmlns="http://www.w3.org/2000/svg">
<rect y="130" rx="4" />
<rect y="26" rx="4" />
<rect y="234" rx="4" />
<rect y="182" rx="4" />
<rect y="78" rx="4" />
<rect y="286" rx="4" />
<rect y="156" rx="4" />
<rect y="52" rx="4" />
<rect y="260" rx="4"/>
<rect rx="4"/>
<rect y="208" rx="4" />
<rect y="104" rx="4" />
<rect y="312" rx="4" />
<rect x="156" y="130" rx="4" />
<rect x="156" y="26" rx="4" />
<rect x="156" y="234" rx="4" />
<rect x="156" y="182" rx="4" />
<rect x="156" y="78" rx="4" />
<rect x="156" y="286" rx="4" />
<rect x="156" y="156" rx="4" />
<rect x="156" y="52" rx="4" />
<rect x="156" y="260" rx="4" />
<rect x="156" rx="4" />
<rect x="156" y="208" rx="4" />
<rect x="156" y="104" rx="4" />
<rect x="156" y="312" rx="4" />
<rect x="312" y="130" rx="4" />
<rect x="364" y="130" rx="4" />
<rect x="312" y="26" rx="4" />
<rect x="364" y="26" rx="4" />
<rect x="312" y="234" rx="4" />
<rect x="364" y="234" rx="4" />
<rect x="312" y="182" rx="4" />
<rect x="364" y="182" rx="4" />
<rect x="312" y="78" rx="4" />
<rect x="364" y="78" rx="4" />
<rect x="312" y="286" rx="4" />
<rect x="364" y="286" rx="4" />
<rect x="312" y="156" rx="4" />
<rect x="364" y="156" rx="4" />
<rect x="312" y="52" rx="4" />
<rect x="364" y="52" rx="4" />
<rect x="312" y="260" rx="4" />
<rect x="364" y="260" rx="4" />
<rect x="312" rx="4" />
<rect x="364" rx="4" />
<rect x="312" y="208" rx="4" />
<rect x="364" y="208" rx="4" />
<rect x="312" y="104" rx="4" />
<rect x="364" y="104" rx="4" />
<rect x="312" y="312" rx="4" />
<rect x="364" y="312" rx="4" />
<rect x="26" y="130" rx="4" />
<rect x="26" y="26" rx="4" />
<rect x="26" y="234" rx="4" />
<rect x="26" y="182" rx="4" />
<rect x="26" y="78" rx="4" />
<rect x="26" y="286" rx="4" />
<rect x="26" y="156" rx="4" />
<rect x="26" y="52" rx="4" />
<rect x="26" y="260" rx="4" />
<rect x="26" rx="4" />
<rect x="26" y="208" rx="4" />
<rect x="26" y="104" rx="4" />
<rect x="26" y="312" rx="4" />
<rect x="182" y="130" rx="4" />
<rect x="182" y="26" rx="4" />
<rect x="182" y="234" rx="4" />
<rect x="182" y="182" rx="4" />
<rect x="182" y="78" rx="4" />
<rect x="182" y="286" rx="4" />
<rect x="182" y="156" rx="4" />
<rect x="182" y="52" rx="4" />
<rect x="182" y="260" rx="4" />
<rect x="182" rx="4" />
<rect x="182" y="208" rx="4" />
<rect x="182" y="104" rx="4" />
<rect x="182" y="312" rx="4" />
<rect x="52" y="130" rx="4" />
<rect x="52" y="26" rx="4" />
<rect x="52" y="234" rx="4" />
<rect x="52" y="182" rx="4" />
<rect x="52" y="78" rx="4" />
<rect x="52" y="286" rx="4" />
<rect x="52" y="156" rx="4" />
<rect x="52" y="52" rx="4" />
<rect x="52" y="260" rx="4" />
<rect x="52" rx="4" />
<rect x="52" y="208" rx="4" />
<rect x="52" y="104" rx="4" />
<rect x="52" y="312" rx="4" />
<rect x="208" y="130" rx="4" />
<rect x="208" y="26" rx="4" />
<rect x="208" y="234" rx="4" />
<rect x="208" y="182" rx="4" />
<rect x="208" y="78" rx="4" />
<rect x="208" y="286" rx="4" />
<rect x="208" y="156" rx="4" />
<rect x="208" y="52" rx="4" />
<rect x="208" y="260" rx="4" />
<rect x="208" rx="4" />
<rect x="208" y="208" rx="4" />
<rect x="208" y="104" rx="4" />
<rect x="208" y="312" rx="4" />
<rect x="78" y="130" rx="4" />
<rect x="78" y="26" rx="4" />
<rect x="78" y="234" rx="4" />
<rect x="78" y="182" rx="4" />
<rect x="78" y="78" rx="4" />
<rect x="78" y="286" rx="4" />
<rect x="78" y="156" rx="4" />
<rect x="78" y="52" rx="4" />
<rect x="78" y="260" rx="4" />
<rect x="78" rx="4" />
<rect x="78" y="208" rx="4" />
<rect x="78" y="104" rx="4" />
<rect x="78" y="312" rx="4" />
<rect x="234" y="130" rx="4" />
<rect x="234" y="26" rx="4" />
<rect x="234" y="234" rx="4" />
<rect x="234" y="182" rx="4" />
<rect x="234" y="78" rx="4" />
<rect x="234" y="286" rx="4" />
<rect x="234" y="156" rx="4" />
<rect x="234" y="52" rx="4" />
<rect x="234" y="260" rx="4" />
<rect x="234" rx="4" />
<rect x="234" y="208" rx="4" />
<rect x="234" y="104" rx="4" />
<rect x="234" y="312" rx="4" />
<rect x="104" y="130" rx="4" />
<rect x="104" y="26" rx="4" />
<rect x="104" y="234" rx="4" />
<rect x="104" y="182" rx="4" />
<rect x="104" y="78" rx="4" />
<rect x="104" y="286" rx="4" />
<rect x="104" y="156" rx="4" />
<rect x="104" y="52" rx="4" />
<rect x="104" y="260" rx="4" />
<rect x="104" rx="4" />
<rect x="104" y="208" rx="4" />
<rect x="104" y="104" rx="4" />
<rect x="104" y="312" rx="4" />
<rect x="260" y="130" rx="4" />
<rect x="260" y="26" rx="4" />
<rect x="260" y="234" rx="4" />
<rect x="260" y="182" rx="4" />
<rect x="260" y="78" rx="4" />
<rect x="260" y="286" rx="4" />
<rect x="260" y="156" rx="4" />
<rect x="260" y="52" rx="4" />
<rect x="260" y="260" rx="4" />
<rect x="260" rx="4" />
<rect x="260" y="208" rx="4" />
<rect x="260" y="104" rx="4" />
<rect x="260" y="312" rx="4" />
<rect x="130" y="130" rx="4" />
<rect x="130" y="26" rx="4" />
<rect x="130" y="234" rx="4" />
<rect x="130" y="182" rx="4" />
<rect x="130" y="78" rx="4" />
<rect x="130" y="286" rx="4" />
<rect x="130" y="156" rx="4" />
<rect x="130" y="52" rx="4" />
<rect x="130" y="260" rx="4" />
<rect x="130" rx="4" />
<rect x="130" y="208" rx="4" />
<rect x="130" y="104" rx="4" />
<rect x="130" y="312" rx="4" />
<rect x="286" y="130" rx="4" />
<rect x="338" y="130" rx="4" />
<rect x="286" y="26" rx="4" />
<rect x="338" y="26" rx="4" />
<rect x="286" y="234" rx="4" />
<rect x="338" y="234" rx="4" />
<rect x="286" y="182" rx="4" />
<rect x="338" y="182" rx="4" />
<rect x="286" y="78" rx="4" />
<rect x="338" y="78" rx="4" />
<rect x="286" y="286" rx="4" />
<rect x="338" y="286" rx="4" />
<rect x="286" y="156" rx="4" />
<rect x="338" y="156" rx="4" />
<rect x="286" y="52" rx="4" />
<rect x="338" y="52" rx="4" />
<rect x="286" y="260" rx="4" />
<rect x="338" y="260" rx="4" />
<rect x="286" rx="4" />
<rect x="338" rx="4" />
<rect x="286" y="208" rx="4" />
<rect x="338" y="208" rx="4" />
<rect x="286" y="104" rx="4" />
<rect x="338" y="104" rx="4" />
<rect x="286" y="312" rx="4" />
<rect x="338" y="312" rx="4" />
</svg>
