<svg width="42" height="42" viewBox="0 0 42 42" fill="none" xmlns="http://www.w3.org/2000/svg">
<rect x="0.5" y="0.5" width="41" height="41" rx="20.5" stroke="#61BED9"/>
<path d="M18.3507 14.8733C18.3507 15.3774 18.3507 17.6269 18.3507 17.6269H16.3333V20.994H18.3507V30.9999H22.4948V20.9943H25.2757C25.2757 20.9943 25.5362 19.3798 25.6624 17.6145C25.3004 17.6145 22.5105 17.6145 22.5105 17.6145C22.5105 17.6145 22.5105 15.6556 22.5105 15.3123C22.5105 14.9682 22.9623 14.5054 23.4089 14.5054C23.8546 14.5054 24.7954 14.5054 25.6668 14.5054C25.6668 14.0469 25.6668 12.4629 25.6668 11C24.5035 11 23.1802 11 22.5968 11C18.2483 10.9998 18.3507 14.3702 18.3507 14.8733Z" fill="#61BED9"/>
</svg>
