<svg width="42" height="42" viewBox="0 0 42 42" fill="none" xmlns="http://www.w3.org/2000/svg">
<rect x="0.5" y="0.5" width="41" height="41" rx="20.5" stroke="#61BED9"/>
<path d="M25.5862 11H16.4138C13.4286 11 11 13.4286 11 16.4138V25.5863C11 28.5714 13.4286 31 16.4138 31H25.5863C28.5714 31 31 28.5714 31 25.5863V16.4138C31 13.4286 28.5714 11 25.5862 11V11ZM21 26.4686C17.9845 26.4686 15.5314 24.0154 15.5314 21C15.5314 17.9845 17.9845 15.5314 21 15.5314C24.0154 15.5314 26.4686 17.9845 26.4686 21C26.4686 24.0154 24.0154 26.4686 21 26.4686ZM26.5993 16.8211C25.7082 16.8211 24.9834 16.0963 24.9834 15.2052C24.9834 14.314 25.7082 13.5891 26.5993 13.5891C27.4904 13.5891 28.2154 14.314 28.2154 15.2052C28.2154 16.0963 27.4904 16.8211 26.5993 16.8211Z" fill="#61BED9"/>
<path d="M21 17C18.7945 17 17 18.7944 17 21C17 23.2055 18.7945 25 21 25C23.2056 25 25 23.2055 25 21C25 18.7944 23.2056 17 21 17Z" fill="#61BED9"/>
<path d="M26.5994 14.7617C26.3549 14.7617 26.1559 14.9607 26.1559 15.2051C26.1559 15.4496 26.3549 15.6486 26.5994 15.6486C26.844 15.6486 27.0429 15.4497 27.0429 15.2051C27.0429 14.9605 26.844 14.7617 26.5994 14.7617Z" fill="#61BED9"/>
</svg>
