<svg width="129" height="60" viewBox="0 0 129 60" fill="none" xmlns="http://www.w3.org/2000/svg">
<path d="M4.60742 1.35938L8.625 12.7031L12.6211 1.35938H16.8535V17H13.6201V12.7246L13.9424 5.34473L9.7207 17H7.50781L3.29688 5.35547L3.61914 12.7246V17H0.396484V1.35938H4.60742ZM18.9805 11.0811C18.9805 9.92806 19.2025 8.90039 19.6465 7.99805C20.0905 7.0957 20.7279 6.39746 21.5586 5.90332C22.3965 5.40918 23.3669 5.16211 24.4697 5.16211C26.0381 5.16211 27.3164 5.64193 28.3047 6.60156C29.3001 7.5612 29.8551 8.86458 29.9697 10.5117L29.9912 11.3066C29.9912 13.0898 29.4935 14.5221 28.498 15.6035C27.5026 16.6777 26.167 17.2148 24.4912 17.2148C22.8154 17.2148 21.4762 16.6777 20.4736 15.6035C19.4782 14.5293 18.9805 13.0684 18.9805 11.2207V11.0811ZM22.085 11.3066C22.085 12.4095 22.2926 13.2546 22.708 13.8418C23.1234 14.4219 23.7178 14.7119 24.4912 14.7119C25.2432 14.7119 25.8304 14.4255 26.2529 13.8525C26.6755 13.2725 26.8867 12.3486 26.8867 11.0811C26.8867 9.99967 26.6755 9.16178 26.2529 8.56738C25.8304 7.97298 25.236 7.67578 24.4697 7.67578C23.7106 7.67578 23.1234 7.97298 22.708 8.56738C22.2926 9.15462 22.085 10.0677 22.085 11.3066ZM38.1982 13.7881C38.1982 13.4085 38.0085 13.1113 37.6289 12.8965C37.2565 12.6745 36.6549 12.4775 35.8242 12.3057C33.0599 11.7256 31.6777 10.5511 31.6777 8.78223C31.6777 7.75098 32.1038 6.8916 32.9561 6.2041C33.8154 5.50944 34.9362 5.16211 36.3184 5.16211C37.7936 5.16211 38.9717 5.50944 39.8525 6.2041C40.7406 6.89876 41.1846 7.80111 41.1846 8.91113H38.0801C38.0801 8.46712 37.9368 8.10189 37.6504 7.81543C37.3639 7.52181 36.9163 7.375 36.3076 7.375C35.7848 7.375 35.3802 7.49316 35.0938 7.72949C34.8073 7.96582 34.6641 8.2666 34.6641 8.63184C34.6641 8.97559 34.8252 9.25488 35.1475 9.46973C35.4769 9.67741 36.0283 9.86003 36.8018 10.0176C37.5752 10.168 38.2269 10.3398 38.7568 10.5332C40.3968 11.1348 41.2168 12.1768 41.2168 13.6592C41.2168 14.7191 40.762 15.5785 39.8525 16.2373C38.943 16.889 37.7686 17.2148 36.3291 17.2148C35.3551 17.2148 34.4886 17.043 33.7295 16.6992C32.9775 16.3483 32.3867 15.8721 31.957 15.2705C31.5273 14.6618 31.3125 14.0065 31.3125 13.3047H34.2559C34.2845 13.8561 34.4886 14.2786 34.8682 14.5723C35.2477 14.8659 35.7562 15.0127 36.3936 15.0127C36.988 15.0127 37.4355 14.9017 37.7363 14.6797C38.0443 14.4505 38.1982 14.1533 38.1982 13.7881ZM49.9609 17C49.8177 16.7207 49.7139 16.3734 49.6494 15.958C48.8975 16.7959 47.9199 17.2148 46.7168 17.2148C45.5781 17.2148 44.6328 16.8854 43.8809 16.2266C43.1361 15.5677 42.7637 14.737 42.7637 13.7344C42.7637 12.5026 43.2184 11.5573 44.1279 10.8984C45.0446 10.2396 46.3659 9.90658 48.0918 9.89941H49.5205V9.2334C49.5205 8.69629 49.3809 8.2666 49.1016 7.94434C48.8294 7.62207 48.3962 7.46094 47.8018 7.46094C47.279 7.46094 46.8672 7.58626 46.5664 7.83691C46.2728 8.08757 46.126 8.43132 46.126 8.86816H43.0215C43.0215 8.19499 43.2292 7.57194 43.6445 6.99902C44.0599 6.42611 44.6471 5.97852 45.4062 5.65625C46.1654 5.32682 47.0176 5.16211 47.9629 5.16211C49.3952 5.16211 50.5303 5.52376 51.3682 6.24707C52.2132 6.96322 52.6357 7.97298 52.6357 9.27637V14.3145C52.6429 15.4173 52.7969 16.2516 53.0977 16.8174V17H49.9609ZM47.3936 14.8408C47.8519 14.8408 48.2744 14.7406 48.6611 14.54C49.0479 14.3324 49.3343 14.0566 49.5205 13.7129V11.7148H48.3604C46.8063 11.7148 45.9792 12.252 45.8789 13.3262L45.8682 13.5088C45.8682 13.8955 46.0042 14.2142 46.2764 14.4648C46.5485 14.7155 46.9209 14.8408 47.3936 14.8408ZM58.2969 17H55.1816V5.37695H58.2969V17ZM54.999 2.36914C54.999 1.90365 55.153 1.52051 55.4609 1.21973C55.776 0.918945 56.2021 0.768555 56.7393 0.768555C57.2692 0.768555 57.6917 0.918945 58.0068 1.21973C58.3219 1.52051 58.4795 1.90365 58.4795 2.36914C58.4795 2.8418 58.3184 3.22852 57.9961 3.5293C57.681 3.83008 57.262 3.98047 56.7393 3.98047C56.2165 3.98047 55.7939 3.83008 55.4717 3.5293C55.1566 3.22852 54.999 2.8418 54.999 2.36914ZM65.6982 14.7119C66.2712 14.7119 66.7367 14.5544 67.0947 14.2393C67.4528 13.9242 67.639 13.5052 67.6533 12.9824H70.5645C70.5573 13.7702 70.3424 14.4935 69.9199 15.1523C69.4974 15.804 68.9173 16.3125 68.1797 16.6777C67.4492 17.0358 66.64 17.2148 65.752 17.2148C64.0905 17.2148 62.7799 16.6885 61.8203 15.6357C60.8607 14.5758 60.3809 13.1149 60.3809 11.2529V11.0488C60.3809 9.25846 60.8571 7.82975 61.8096 6.7627C62.762 5.69564 64.069 5.16211 65.7305 5.16211C67.1842 5.16211 68.348 5.57747 69.2217 6.4082C70.1025 7.23177 70.5501 8.33105 70.5645 9.70605H67.6533C67.639 9.10449 67.4528 8.61751 67.0947 8.24512C66.7367 7.86556 66.264 7.67578 65.6768 7.67578C64.9535 7.67578 64.4056 7.94076 64.0332 8.4707C63.668 8.99349 63.4854 9.8457 63.4854 11.0273V11.3496C63.4854 12.5456 63.668 13.4049 64.0332 13.9277C64.3984 14.4505 64.9535 14.7119 65.6982 14.7119ZM4.60742 20.3594L8.625 31.7031L12.6211 20.3594H16.8535V36H13.6201V31.7246L13.9424 24.3447L9.7207 36H7.50781L3.29688 24.3555L3.61914 31.7246V36H0.396484V20.3594H4.60742ZM26.1992 36C26.056 35.7207 25.9521 35.3734 25.8877 34.958C25.1357 35.7959 24.1582 36.2148 22.9551 36.2148C21.8164 36.2148 20.8711 35.8854 20.1191 35.2266C19.3743 34.5677 19.002 33.737 19.002 32.7344C19.002 31.5026 19.4567 30.5573 20.3662 29.8984C21.2829 29.2396 22.6042 28.9066 24.3301 28.8994H25.7588V28.2334C25.7588 27.6963 25.6191 27.2666 25.3398 26.9443C25.0677 26.6221 24.6344 26.4609 24.04 26.4609C23.5173 26.4609 23.1055 26.5863 22.8047 26.8369C22.5111 27.0876 22.3643 27.4313 22.3643 27.8682H19.2598C19.2598 27.195 19.4674 26.5719 19.8828 25.999C20.2982 25.4261 20.8854 24.9785 21.6445 24.6562C22.4036 24.3268 23.2559 24.1621 24.2012 24.1621C25.6335 24.1621 26.7686 24.5238 27.6064 25.2471C28.4515 25.9632 28.874 26.973 28.874 28.2764V33.3145C28.8812 34.4173 29.0352 35.2516 29.3359 35.8174V36H26.1992ZM23.6318 33.8408C24.0902 33.8408 24.5127 33.7406 24.8994 33.54C25.2861 33.3324 25.5726 33.0566 25.7588 32.7129V30.7148H24.5986C23.0446 30.7148 22.2174 31.252 22.1172 32.3262L22.1064 32.5088C22.1064 32.8955 22.2425 33.2142 22.5146 33.4648C22.7868 33.7155 23.1592 33.8408 23.6318 33.8408ZM34.1162 24.377L34.2129 25.7197C35.0436 24.6813 36.1572 24.1621 37.5537 24.1621C38.7855 24.1621 39.7021 24.5238 40.3037 25.2471C40.9053 25.9704 41.2132 27.0518 41.2275 28.4912V36H38.123V28.5664C38.123 27.9076 37.9798 27.4313 37.6934 27.1377C37.4069 26.8369 36.9307 26.6865 36.2646 26.6865C35.391 26.6865 34.7357 27.0589 34.2988 27.8037V36H31.1943V24.377H34.1162ZM50.3262 36C50.1829 35.7207 50.0791 35.3734 50.0146 34.958C49.2627 35.7959 48.2852 36.2148 47.082 36.2148C45.9434 36.2148 44.998 35.8854 44.2461 35.2266C43.5013 34.5677 43.1289 33.737 43.1289 32.7344C43.1289 31.5026 43.5837 30.5573 44.4932 29.8984C45.4098 29.2396 46.7311 28.9066 48.457 28.8994H49.8857V28.2334C49.8857 27.6963 49.7461 27.2666 49.4668 26.9443C49.1947 26.6221 48.7614 26.4609 48.167 26.4609C47.6442 26.4609 47.2324 26.5863 46.9316 26.8369C46.638 27.0876 46.4912 27.4313 46.4912 27.8682H43.3867C43.3867 27.195 43.5944 26.5719 44.0098 25.999C44.4251 25.4261 45.0124 24.9785 45.7715 24.6562C46.5306 24.3268 47.3828 24.1621 48.3281 24.1621C49.7604 24.1621 50.8955 24.5238 51.7334 25.2471C52.5785 25.9632 53.001 26.973 53.001 28.2764V33.3145C53.0081 34.4173 53.1621 35.2516 53.4629 35.8174V36H50.3262ZM47.7588 33.8408C48.2171 33.8408 48.6396 33.7406 49.0264 33.54C49.4131 33.3324 49.6995 33.0566 49.8857 32.7129V30.7148H48.7256C47.1715 30.7148 46.3444 31.252 46.2441 32.3262L46.2334 32.5088C46.2334 32.8955 46.3695 33.2142 46.6416 33.4648C46.9137 33.7155 47.2861 33.8408 47.7588 33.8408ZM54.9346 30.1025C54.9346 28.3193 55.3571 26.8835 56.2021 25.7949C57.0544 24.7064 58.2002 24.1621 59.6396 24.1621C60.9144 24.1621 61.9062 24.599 62.6152 25.4727L62.7441 24.377H65.5586V35.6133C65.5586 36.6302 65.3258 37.5146 64.8604 38.2666C64.402 39.0186 63.7539 39.5915 62.916 39.9854C62.0781 40.3792 61.097 40.5762 59.9727 40.5762C59.1204 40.5762 58.2897 40.4043 57.4805 40.0605C56.6712 39.724 56.0589 39.2871 55.6436 38.75L57.0186 36.8594C57.792 37.7259 58.7301 38.1592 59.833 38.1592C60.6566 38.1592 61.2975 37.9372 61.7559 37.4932C62.2142 37.0563 62.4434 36.4333 62.4434 35.624V35.001C61.7272 35.8102 60.7855 36.2148 59.6182 36.2148C58.2217 36.2148 57.0902 35.6706 56.2236 34.582C55.3643 33.4863 54.9346 32.0361 54.9346 30.2314V30.1025ZM58.0391 30.3281C58.0391 31.3809 58.2503 32.208 58.6729 32.8096C59.0954 33.404 59.6755 33.7012 60.4131 33.7012C61.3584 33.7012 62.0352 33.3467 62.4434 32.6377V27.75C62.028 27.041 61.3584 26.6865 60.4346 26.6865C59.6898 26.6865 59.1025 26.9909 58.6729 27.5996C58.2503 28.2083 58.0391 29.1178 58.0391 30.3281ZM73.3037 36.2148C71.5993 36.2148 70.21 35.6921 69.1357 34.6465C68.0687 33.6009 67.5352 32.208 67.5352 30.4678V30.167C67.5352 28.9997 67.7607 27.9577 68.2119 27.041C68.6631 26.1172 69.3005 25.4082 70.124 24.9141C70.9548 24.4128 71.9001 24.1621 72.96 24.1621C74.5498 24.1621 75.7995 24.6634 76.709 25.666C77.6257 26.6686 78.084 28.0902 78.084 29.9307V31.1982H70.6826C70.7829 31.9574 71.0837 32.5661 71.585 33.0244C72.0934 33.4827 72.7344 33.7119 73.5078 33.7119C74.7038 33.7119 75.6383 33.2786 76.3115 32.4121L77.8369 34.1201C77.3714 34.779 76.7412 35.2946 75.9463 35.667C75.1514 36.0322 74.2705 36.2148 73.3037 36.2148ZM72.9492 26.6758C72.3333 26.6758 71.832 26.8835 71.4453 27.2988C71.0658 27.7142 70.8223 28.3086 70.7148 29.082H75.0332V28.835C75.0189 28.1475 74.8327 27.6175 74.4746 27.2451C74.1165 26.8656 73.6081 26.6758 72.9492 26.6758ZM82.7676 24.377L82.8643 25.6768C83.6878 24.667 84.8014 24.1621 86.2051 24.1621C87.7018 24.1621 88.7295 24.7529 89.2881 25.9346C90.1045 24.7529 91.2682 24.1621 92.7793 24.1621C94.0397 24.1621 94.9779 24.5309 95.5938 25.2686C96.2096 25.999 96.5176 27.1019 96.5176 28.5771V36H93.4023V28.5879C93.4023 27.929 93.2734 27.4492 93.0156 27.1484C92.7578 26.8405 92.3031 26.6865 91.6514 26.6865C90.7204 26.6865 90.0758 27.1305 89.7178 28.0186L89.7285 36H86.624V28.5986C86.624 27.9255 86.4915 27.4385 86.2266 27.1377C85.9616 26.8369 85.5104 26.6865 84.873 26.6865C83.9922 26.6865 83.3548 27.0518 82.9609 27.7822V36H79.8564V24.377H82.7676ZM104.263 36.2148C102.558 36.2148 101.169 35.6921 100.095 34.6465C99.0277 33.6009 98.4941 32.208 98.4941 30.4678V30.167C98.4941 28.9997 98.7197 27.9577 99.1709 27.041C99.6221 26.1172 100.259 25.4082 101.083 24.9141C101.914 24.4128 102.859 24.1621 103.919 24.1621C105.509 24.1621 106.758 24.6634 107.668 25.666C108.585 26.6686 109.043 28.0902 109.043 29.9307V31.1982H101.642C101.742 31.9574 102.043 32.5661 102.544 33.0244C103.052 33.4827 103.693 33.7119 104.467 33.7119C105.663 33.7119 106.597 33.2786 107.271 32.4121L108.796 34.1201C108.33 34.779 107.7 35.2946 106.905 35.667C106.11 36.0322 105.229 36.2148 104.263 36.2148ZM103.908 26.6758C103.292 26.6758 102.791 26.8835 102.404 27.2988C102.025 27.7142 101.781 28.3086 101.674 29.082H105.992V28.835C105.978 28.1475 105.792 27.6175 105.434 27.2451C105.076 26.8656 104.567 26.6758 103.908 26.6758ZM113.673 24.377L113.77 25.7197C114.6 24.6813 115.714 24.1621 117.11 24.1621C118.342 24.1621 119.259 24.5238 119.86 25.2471C120.462 25.9704 120.77 27.0518 120.784 28.4912V36H117.68V28.5664C117.68 27.9076 117.536 27.4313 117.25 27.1377C116.964 26.8369 116.487 26.6865 115.821 26.6865C114.948 26.6865 114.292 27.0589 113.855 27.8037V36H110.751V24.377H113.673ZM126.864 21.5195V24.377H128.852V26.6543H126.864V32.4551C126.864 32.8848 126.947 33.1927 127.111 33.3789C127.276 33.5651 127.591 33.6582 128.057 33.6582C128.4 33.6582 128.705 33.6331 128.97 33.583V35.9355C128.361 36.1217 127.734 36.2148 127.09 36.2148C124.913 36.2148 123.803 35.1156 123.76 32.917V26.6543H122.062V24.377H123.76V21.5195H126.864ZM12.7715 53.0234C12.1914 53.7181 11.3714 54.2588 10.3115 54.6455C9.25163 55.0251 8.07715 55.2148 6.78809 55.2148C5.43457 55.2148 4.24577 54.9212 3.22168 54.334C2.20475 53.7396 1.41699 52.8802 0.858398 51.7559C0.306966 50.6315 0.0240885 49.3102 0.00976562 47.792V46.7285C0.00976562 45.1673 0.271159 43.8174 0.793945 42.6787C1.32389 41.5329 2.08301 40.6592 3.07129 40.0576C4.06673 39.4489 5.23047 39.1445 6.5625 39.1445C8.41732 39.1445 9.86751 39.5885 10.9131 40.4766C11.9587 41.3574 12.5781 42.6429 12.7715 44.333H9.63477C9.49154 43.4378 9.17285 42.7826 8.67871 42.3672C8.19173 41.9518 7.51855 41.7441 6.65918 41.7441C5.56348 41.7441 4.72917 42.1559 4.15625 42.9795C3.58333 43.8031 3.29329 45.0277 3.28613 46.6533V47.6523C3.28613 49.2923 3.59766 50.5312 4.2207 51.3691C4.84375 52.207 5.75684 52.626 6.95996 52.626C8.17025 52.626 9.0332 52.3682 9.54883 51.8525V49.1562H6.61621V46.7822H12.7715V53.0234ZM21.7197 46.2881C21.2972 46.2308 20.9248 46.2021 20.6025 46.2021C19.4281 46.2021 18.6582 46.5996 18.293 47.3945V55H15.1885V43.377H18.1211L18.207 44.7627C18.8301 43.6956 19.693 43.1621 20.7959 43.1621C21.1396 43.1621 21.4619 43.2087 21.7627 43.3018L21.7197 46.2881ZM22.3535 49.0811C22.3535 47.9281 22.5755 46.9004 23.0195 45.998C23.4635 45.0957 24.1009 44.3975 24.9316 43.9033C25.7695 43.4092 26.7399 43.1621 27.8428 43.1621C29.4111 43.1621 30.6895 43.6419 31.6777 44.6016C32.6732 45.5612 33.2282 46.8646 33.3428 48.5117L33.3643 49.3066C33.3643 51.0898 32.8665 52.5221 31.8711 53.6035C30.8757 54.6777 29.54 55.2148 27.8643 55.2148C26.1885 55.2148 24.8493 54.6777 23.8467 53.6035C22.8512 52.5293 22.3535 51.0684 22.3535 49.2207V49.0811ZM25.458 49.3066C25.458 50.4095 25.6657 51.2546 26.0811 51.8418C26.4964 52.4219 27.0908 52.7119 27.8643 52.7119C28.6162 52.7119 29.2035 52.4255 29.626 51.8525C30.0485 51.2725 30.2598 50.3486 30.2598 49.0811C30.2598 47.9997 30.0485 47.1618 29.626 46.5674C29.2035 45.973 28.609 45.6758 27.8428 45.6758C27.0837 45.6758 26.4964 45.973 26.0811 46.5674C25.6657 47.1546 25.458 48.0677 25.458 49.3066ZM42.2373 53.8184C41.471 54.7493 40.4111 55.2148 39.0576 55.2148C37.8115 55.2148 36.859 54.8568 36.2002 54.1406C35.5485 53.4245 35.2155 52.3753 35.2012 50.9932V43.377H38.3057V50.8857C38.3057 52.096 38.8571 52.7012 39.96 52.7012C41.0127 52.7012 41.736 52.3359 42.1299 51.6055V43.377H45.2451V55H42.3232L42.2373 53.8184ZM58.0498 49.2959C58.0498 51.0863 57.6416 52.5221 56.8252 53.6035C56.016 54.6777 54.9202 55.2148 53.5381 55.2148C52.3636 55.2148 51.4147 54.8066 50.6914 53.9902V59.4688H47.5869V43.377H50.4658L50.5732 44.5156C51.3252 43.6133 52.3063 43.1621 53.5166 43.1621C54.9489 43.1621 56.0625 43.6921 56.8574 44.752C57.6523 45.8118 58.0498 47.2728 58.0498 49.1348V49.2959ZM54.9453 49.0703C54.9453 47.9889 54.752 47.1546 54.3652 46.5674C53.9857 45.9801 53.4307 45.6865 52.7002 45.6865C51.7262 45.6865 51.0566 46.0589 50.6914 46.8037V51.5625C51.071 52.3288 51.7477 52.7119 52.7217 52.7119C54.2041 52.7119 54.9453 51.498 54.9453 49.0703Z" fill="#30419A"/>
</svg>
