<svg width="42" height="42" viewBox="0 0 42 42" fill="none" xmlns="http://www.w3.org/2000/svg">
<rect x="0.5" y="0.5" width="41" height="41" rx="20.5" stroke="#61BED9"/>
<g clip-path="url(#clip0)">
<path d="M11.3534 20.6431L15.9618 22.3631L17.7455 28.0996C17.8596 28.467 18.3089 28.6028 18.6071 28.359L21.1759 26.2648C21.4452 26.0454 21.8287 26.0345 22.1101 26.2388L26.7433 29.6026C27.0623 29.8344 27.5142 29.6596 27.5942 29.2742L30.9883 12.9481C31.0756 12.527 30.6619 12.1758 30.261 12.3308L11.348 19.6269C10.8812 19.8069 10.8853 20.4677 11.3534 20.6431ZM17.458 21.4475L26.4646 15.9004C26.6264 15.801 26.793 16.0198 26.654 16.1488L19.221 23.0581C18.9597 23.3013 18.7912 23.6268 18.7434 23.98L18.4902 25.8564C18.4567 26.107 18.1048 26.1318 18.0356 25.8894L17.0618 22.4677C16.9503 22.0774 17.1128 21.6606 17.458 21.4475Z" fill="#61BED9"/>
</g>
<defs>
<clipPath id="clip0">
<rect width="20" height="20" fill="white" transform="translate(11 11)"/>
</clipPath>
</defs>
</svg>
